<svg xmlns="http://www.w3.org/2000/svg" viewBox="0 0 1000 430" role="img" aria-labelledby="map-title map-desc"><title id="map-title">Grimsby's documented passage across the Atlantic</title><desc id="map-desc">An illustrative map from Vaguely England to Boston, and onward to Maine. Grimsby has arrived in an unnamed town; H-31 remains unlocated.</desc><defs><pattern id="grid" width="62" height="52" patternUnits="userSpaceOnUse"><path d="M62 0H0V52" fill="none" stroke="#a89974" stroke-width=".5"/></pattern><pattern id="land" width="6" height="6" patternUnits="userSpaceOnUse"><path d="M0 6L6 0" stroke="#9b8b66" stroke-width=".6"/></pattern></defs><rect x="8" y="8" width="984" height="414" fill="url(#grid)" stroke="#a89974"/><g fill="#d5c8a7" stroke="#887858" stroke-width="1.5"><path d="M8 8H260L250 25 272 38 256 61 284 80 271 103 298 125 280 151 297 165 276 190 248 207 242 225 224 237 231 253 209 273 191 295 164 313 132 352 118 390 110 422H8Z"/><path d="M255 108l35-20 42 8 6 24-36 13-19-15Z"/><path d="M331 103l17-7 23 14-13 14-27-8Z"/><path d="M510 8h130l-22 47-26 51-32 22-18-50Z"/><path d="M726 55l26-23 27 6-4 32-17 22 11 17-14 17 10 17-15 11-4 23-35 5-12-12 21-19 8-24-7-24 12-22Z"/><path d="M698 116l-20-7-14 18 4 29 24 3 13-18Z"/><path d="M871 8h121v414H729l-18-27 2-34 19-18-7-32 15-23-3-23 33-18 9-34 33-15 17-24-7-31 26-22 9-33-6-31Z"/></g><g fill="url(#land)" opacity=".6"><path d="M8 8H260L250 25 272 38 256 61 284 80 271 103 298 125 280 151 297 165 276 190 248 207 242 225 224 237 231 253 209 273 191 295 164 313 132 352 118 390 110 422H8Z"/><path d="M871 8h121v414H729l-18-27 2-34 19-18-7-32 15-23-3-23 33-18 9-34 33-15 17-24-7-31 26-22 9-33-6-31Z"/></g><g fill="#796b51" font-size="12" letter-spacing="3"><text x="60" y="150" transform="rotate(-14 60 150)">NORTH AMERICA</text><text x="458" y="294" text-anchor="middle" font-style="italic" font-size="25" letter-spacing="6">Atlantic Ocean</text><text x="558" y="51" font-size="10" letter-spacing="1" transform="rotate(-55 558 51)">GREENLAND</text></g><path class="route" d="M739 169C650 350 370 388 233 251" stroke="#8b332d" stroke-width="3" fill="none"/><path class="route" d="M233 251Q273 241 265 215" stroke="#8b332d" stroke-width="2.5" fill="none"/><g fill="#8b332d"><circle cx="739" cy="169" r="5"/><circle cx="233" cy="251" r="5"/><circle cx="265" cy="215" r="5"/></g><circle cx="249" cy="215" r="8" fill="none" stroke="#8b332d" stroke-width="1.5"/><path d="M242 208l14 14m0-14-14 14" stroke="#8b332d"/><g fill="#383329"><text x="732" y="210" font-size="19" text-anchor="middle">Vaguely England</text><text x="732" y="230" font-size="11" font-style="italic" text-anchor="middle">Origin approximate. Naturally.</text><text x="208" y="276" text-anchor="end" font-size="21">Boston</text><text x="208" y="297" text-anchor="end" font-size="14" font-style="italic" fill="#8b332d">“Bah-stn”</text><path d="M258 211l37-36h40" fill="none" stroke="#796b51"/><text x="342" y="176" font-size="20">Maine</text><text x="342" y="196" font-size="12" font-style="italic">H-31 reported here</text><text x="282" y="242" font-size="11" fill="#8b332d">Grimsby ashore · Entry X</text></g><g transform="translate(908 320)" stroke="#796b51" fill="none"><circle r="37"/><circle r="30" stroke-width=".5"/><path d="M0-48L9 0 0 48-9 0ZM-48 0L0-9 48 0 0 9Z"/><path d="M0-48L9 0 0 0Z" fill="#796b51"/><text y="-56" text-anchor="middle" fill="#796b51" stroke="none" font-size="13">N</text></g><text x="25" y="401" font-size="10" fill="#796b51" letter-spacing="1">ILLUSTRATIVE CHART · NOT FOR NAVIGATION</text></svg>
